<?xml version='1.0' encoding='iso-8859-1'?>
<!DOCTYPE svg PUBLIC '-//W3C//DTD SVG 1.1//EN' 'http://www.w3.org/Graphics/SVG/1.1/DTD/svg11.dtd'>
<!-- Uploaded to: SVG Repo, www.svgrepo.com, Generator: SVG Repo Mixer Tools -->
<svg fill="#000000" height="800px" width="800px" version="1.1" xmlns="http://www.w3.org/2000/svg" viewBox="0 0 267.5 267.5" xmlns:xlink="http://www.w3.org/1999/xlink" enable-background="new 0 0 267.5 267.5">
  <g>
    <path d="m213.25,0h-159c-6.893,0-12.5,5.607-12.5,12.5v219.75c0,19.437 15.813,35.25 35.25,35.25h113.5c19.437,0 35.25-15.813 35.25-35.25v-219.75c0-6.893-5.607-12.5-12.5-12.5zm.5,232.25c0,12.82-10.43,23.25-23.25,23.25h-113.5c-12.82,0-23.25-10.43-23.25-23.25v-219.75c0-0.276 0.225-0.5 0.5-0.5h159c0.275,0 0.5,0.224 0.5,0.5v219.75z"/>
    <path d="m187.875,34.755h-108.25c-3.313,0-6,2.687-6,6v38.053c0,3.313 2.687,6 6,6h108.25c3.313,0 6-2.687 6-6v-38.053c0-3.314-2.687-6-6-6zm-6,38.053h-96.25v-26.053h96.25v26.053z"/>
    <path d="m103.284,161.077h-23.659c-3.313,0-6,2.687-6,6v23.507c0,3.313 2.687,6 6,6h23.659c3.313,0 6-2.687 6-6v-23.507c1.42109e-14-3.313-2.686-6-6-6zm-6,23.507h-11.659v-11.507h11.659v11.507z"/>
    <path d="m145.729,161.077h-23.659c-3.313,0-6,2.687-6,6v23.507c0,3.313 2.687,6 6,6h23.658c3.313,0 6-2.687 6-6v-23.507c0.001-3.313-2.686-6-5.999-6zm-6,23.507h-11.659v-11.507h11.658v11.507z"/>
    <path d="m103.284,120.099h-23.659c-3.313,0-6,2.687-6,6v23.507c0,3.313 2.687,6 6,6h23.659c3.313,0 6-2.687 6-6v-23.507c1.42109e-14-3.313-2.686-6-6-6zm-6,23.507h-11.659v-11.507h11.659v11.507z"/>
    <path d="m145.729,120.099h-23.659c-3.313,0-6,2.687-6,6v23.507c0,3.313 2.687,6 6,6h23.658c3.313,0 6-2.687 6-6v-23.507c0.001-3.313-2.686-6-5.999-6zm-6,23.507h-11.659v-11.507h11.658v11.507z"/>
    <path d="m187.875,120.099h-23.659c-3.313,0-6,2.687-6,6v23.507c0,3.313 2.687,6 6,6h23.659c3.313,0 6-2.687 6-6v-23.507c0-3.313-2.687-6-6-6zm-6,23.507h-11.659v-11.507h11.659v11.507z"/>
    <path d="m103.284,202.792h-23.659c-3.313,0-6,2.687-6,6v23.507c0,3.313 2.687,6 6,6h23.659c3.313,0 6-2.687 6-6v-23.507c1.42109e-14-3.314-2.686-6-6-6zm-6,23.507h-11.659v-11.507h11.659v11.507z"/>
    <path d="m145.729,202.792h-23.659c-3.313,0-6,2.687-6,6v23.507c0,3.313 2.687,6 6,6h23.658c3.313,0 6-2.687 6-6v-23.507c0.001-3.314-2.686-6-5.999-6zm-6,23.507h-11.659v-11.507h11.658v11.507z"/>
    <path d="m187.875,161.077h-23.659c-3.313,0-6,2.687-6,6v65.222c0,3.313 2.687,6 6,6h23.659c3.313,0 6-2.687 6-6v-65.222c0-3.313-2.687-6-6-6zm-6,65.222h-11.659v-53.222h11.659v53.222z"/>
  </g>
</svg>